simulation
nRows=43
nColumns=15
endheader
time  TH_x TH_y TH_z SC_y  SC_z  SC_x  AC_y  AC_z  AC_x  GH_y  GH_z  GH_yy  EL_x  PS_y
0.000000  0.000000  0.000000  0.000000  -12.595895  -9.987984  -20.674990  47.765442  23.366281  -8.928429  27.813865  19.261280  -12.297007  23.214795  87.466763
0.027273  0.000000  0.000000  0.000000  -12.638993  -9.991948  -20.603281  47.777985  23.411214  -8.951718  28.150074  19.234880  -12.613336  23.156563  87.459919
0.054545  0.000000  0.000000  0.000000  -12.664083  -10.025985  -20.594218  47.738492  23.410655  -8.965631  28.197413  19.282659  -12.694655  23.074619  87.447685
0.081818  0.000000  0.000000  0.000000  -12.671698  -10.082979  -20.636520  47.658108  23.365277  -8.971668  27.971744  19.411746  -12.561561  22.971841  87.426709
0.109091  0.000000  0.000000  0.000000  -12.662368  -10.155814  -20.732608  47.544101  23.285832  -8.961261  27.488931  19.629269  -12.234654  22.851108  87.393640
0.136364  0.000000  0.000000  0.000000  -12.636624  -10.237375  -20.875032  47.406682  23.175738  -8.933043  26.764837  19.942358  -11.734533  22.715301  87.345129
0.163636  0.000000  0.000000  0.000000  -12.594997  -10.320547  -21.046845  47.258819  23.031463  -8.892628  25.815325  20.358142  -11.081798  22.567299  87.277823
0.190909  0.000000  0.000000  0.000000  -12.538018  -10.398214  -21.255020  47.106534  22.867119  -8.827987  24.656257  20.883749  -10.297047  22.409981  87.188373
0.218182  0.000000  0.000000  0.000000  -12.466218  -10.463262  -21.474925  46.964888  22.673690  -8.750393  23.303498  21.526309  -9.400880  22.246226  87.073428
0.245455  0.000000  0.000000  0.000000  -12.380128  -10.508574  -21.713218  46.839863  22.465170  -8.647998  21.772909  22.292951  -8.413896  22.078915  86.929637
0.272727  0.000000  0.000000  0.000000  -12.280278  -10.527035  -21.959184  46.742318  22.242892  -8.521783  20.080355  23.190804  -7.356693  21.910925  86.753649
0.300000  0.000000  0.000000  0.000000  -12.167418  -10.511568  -22.200073  46.682975  22.007397  -8.374656  18.243377  24.225990  -6.251274  21.745134  86.542762
0.327273  0.000000  0.000000  0.000000  -12.045841  -10.455712  -22.429723  46.661597  21.774017  -8.211355  16.306852  25.388256  -5.142459  21.584356  86.304828
0.354545  0.000000  0.000000  0.000000  -11.922727  -10.353510  -22.629213  46.674086  21.556864  -8.051582  14.337897  26.654022  -4.093641  21.431358  86.056288
0.381818  0.000000  0.000000  0.000000  -11.805338  -10.199016  -22.798918  46.710852  21.384277  -7.901046  12.404275  27.999320  -3.168749  21.288902  85.813829
0.409091  0.000000  0.000000  0.000000  -11.700937  -9.986288  -22.913771  46.769231  21.266035  -7.784300  10.573750  29.400186  -2.431712  21.159753  85.594143
0.436364  0.000000  0.000000  0.000000  -11.616760  -9.709464  -22.959073  46.843879  21.219158  -7.718110  8.913211  30.832762  -1.945540  21.046612  85.413661
0.463636  0.000000  0.000000  0.000000  -11.558771  -9.366584  -22.934207  46.929798  21.258717  -7.702364  7.448326  32.278400  -1.729726  20.949135  85.276630
0.490909  0.000000  0.000000  0.000000  -11.531140  -8.961197  -22.824174  47.031529  21.372054  -7.738228  6.146557  33.725802  -1.742321  20.862682  85.170098
0.518182  0.000000  0.000000  0.000000  -11.537900  -8.497268  -22.628857  47.150286  21.556030  -7.815165  4.970972  35.164226  -1.936736  20.782288  85.079814
0.545455  0.000000  0.000000  0.000000  -11.583085  -7.978762  -22.338523  47.290080  21.800412  -7.929608  3.884638  36.582930  -2.266382  20.702989  84.991525
0.572727  0.000000  0.000000  0.000000  -11.670723  -7.409644  -21.946577  47.454340  22.097173  -8.075634  2.850656  37.971177  -2.684714  20.619823  84.891007
0.600000  0.000000  0.000000  0.000000  -11.802391  -6.794243  -21.451303  47.641672  22.439575  -8.245807  1.845082  39.319834  -3.161849  20.529308  84.774679
0.627273  0.000000  0.000000  0.000000  -11.973508  -6.137801  -20.844758  47.843166  22.810722  -8.442457  0.876538  40.623806  -3.709793  20.431664  84.665715
0.654545  0.000000  0.000000  0.000000  -12.178544  -5.445700  -20.133362  48.044425  23.203593  -8.658287  -0.041317  41.878621  -4.347024  20.327692  84.591426
0.681818  0.000000  0.000000  0.000000  -12.411964  -4.723322  -19.315800  48.233068  23.605670  -8.891754  -0.894827  43.079805  -5.092024  20.218187  84.579121
0.709091  0.000000  0.000000  0.000000  -12.668238  -3.976051  -18.388111  48.397350  24.002723  -9.143457  -1.670334  44.222888  -5.963272  20.103947  84.656112
0.736364  0.000000  0.000000  0.000000  -12.943591  -3.208197  -17.351539  48.526319  24.386629  -9.406959  -2.358340  45.301366  -6.966970  19.986664  84.841621
0.763636  0.000000  0.000000  0.000000  -13.242499  -2.419056  -16.192739  48.624875  24.747426  -9.669887  -2.968834  46.299211  -8.051794  19.872221  85.116979
0.790909  0.000000  0.000000  0.000000  -13.571848  -1.606454  -14.893387  48.702937  25.074007  -9.918763  -3.517505  47.197610  -9.149587  19.767728  85.452429
0.818182  0.000000  0.000000  0.000000  -13.938524  -0.768218  -13.439007  48.769338  25.358109  -10.137451  -4.020046  47.977751  -10.192190  19.680294  85.818211
0.845455  0.000000  0.000000  0.000000  -14.349415  0.097825  -11.805013  48.836074  25.583791  -10.317233  -4.492147  48.620820  -11.111442  19.617029  86.184568
0.872727  0.000000  0.000000  0.000000  -14.810406  0.992682  -9.998685  48.906154  25.756956  -10.430706  -4.948839  49.110766  -11.845098  19.584278  86.524510
0.900000  0.000000  0.000000  0.000000  -15.318287  1.906753  -8.027513  48.992777  25.865077  -10.492271  -5.399126  49.456649  -12.384716  19.581422  86.836257
0.927273  0.000000  0.000000  0.000000  -15.864987  2.824773  -5.953378  49.096917  25.926398  -10.498585  -5.848799  49.680939  -12.750570  19.604127  87.131483
0.954545  0.000000  0.000000  0.000000  -16.442392  3.731424  -3.823262  49.223535  25.947414  -10.456684  -6.303617  49.806229  -12.963208  19.648026  87.421987
0.981818  0.000000  0.000000  0.000000  -17.042387  4.611391  -1.684193  49.376851  25.934213  -10.372867  -6.769339  49.855113  -13.043172  19.708749  87.719569
1.009091  0.000000  0.000000  0.000000  -17.656839  5.449673  0.416359  49.559756  25.893328  -10.252011  -7.251307  49.849721  -13.011210  19.782031  88.035528
1.036364  0.000000  0.000000  0.000000  -18.277227  6.237707  2.438479  49.766538  25.835531  -10.094523  -7.746319  49.802697  -12.892144  19.865728  88.370964
1.063636  0.000000  0.000000  0.000000  -18.894666  6.972948  4.370778  49.990623  25.759602  -9.912675  -8.243199  49.717834  -12.714603  19.959673  88.717452
1.090909  0.000000  0.000000  0.000000  -19.500261  7.653078  6.193766  50.222678  25.671222  -9.712990  -8.730464  49.598582  -12.507363  20.063776  89.066200
1.118182  0.000000  0.000000  0.000000  -20.085115  8.275779  7.886747  50.453241  25.577379  -9.501607  -9.196633  49.448394  -12.299199  20.177947  89.408421
1.145455  0.000000  0.000000  0.000000  -20.640355  8.838743  9.443302  50.677433  25.474416  -9.295037  -9.630274  49.270732  -12.118706  20.302080  89.735329
